<svg width="120" height="120" viewBox="0 0 120 120" fill="none" xmlns="http://www.w3.org/2000/svg">
    <path
        d="M37.5 105.5C50.4787 105.5 61 94.9787 61 82C61 69.0213 50.4787 58.5 37.5 58.5C24.5213 58.5 14 69.0213 14 82C14 94.9787 24.5213 105.5 37.5 105.5Z"
        fill="#FF8E72" />
    <path
        d="M61 82C61.0012 86.9928 59.4115 91.8562 56.4615 95.8844C53.5115 99.9125 49.3548 102.896 44.5944 104.402C39.834 105.908 34.7177 105.857 29.9878 104.258C25.2579 102.66 21.1604 99.5953 18.29 95.51C22.8127 98.692 28.3134 100.176 33.8227 99.6994C39.3321 99.2232 44.4965 96.8178 48.4062 92.9069C52.3158 88.9961 54.7197 83.8309 55.1942 78.3214C55.6687 72.8119 54.1834 67.3117 51 62.79C54.0883 64.9523 56.6097 67.8274 58.3505 71.1715C60.0913 74.5155 61.0001 78.23 61 82Z"
        fill="#FF5F4B" />
    <path
        d="M106 82.5C106 87.6758 104.291 92.7068 101.138 96.8114C97.9855 100.916 93.5652 103.864 88.5643 105.198C83.5634 106.532 78.2619 106.177 73.4836 104.189C68.7052 102.2 64.7174 98.6883 62.1399 94.2C63.976 90.4989 64.9531 86.431 64.9981 82.2997C65.0431 78.1684 64.155 74.0802 62.3999 70.34C65.0529 65.9452 69.0725 62.5404 73.8438 60.6465C78.6152 58.7526 83.8756 58.4739 88.8204 59.853C93.7652 61.2321 98.1221 64.1931 101.225 68.283C104.327 72.3729 106.004 77.3665 106 82.5Z"
        fill="#FF8E72" />
    <path
        d="M106 82.5C106.003 87.489 104.417 92.3494 101.472 96.3768C98.528 100.404 94.3776 103.389 89.6228 104.9C84.868 106.411 79.7557 106.368 75.0266 104.779C70.2975 103.19 66.1973 100.136 63.3201 96.06C67.8501 99.2179 73.3474 100.68 78.8476 100.189C84.3478 99.6981 89.4995 97.2861 93.3988 93.3761C97.2982 89.466 99.696 84.3077 100.172 78.8062C100.647 73.3046 99.1704 67.8113 96.0001 63.29C99.0883 65.4523 101.61 68.3274 103.351 71.6715C105.091 75.0155 106 78.73 106 82.5Z"
        fill="#FF5F4B" />
    <path
        d="M84.0601 55.05L75.8301 38.45C77.908 39.0049 80.0493 39.2873 82.2001 39.29C83.5741 39.2882 84.9456 39.1711 86.3001 38.94C86.71 38.871 87.0882 38.6759 87.3821 38.382C87.676 38.0881 87.871 37.7099 87.9401 37.3C88.6019 33.4376 88.3279 29.4728 87.1411 25.7381C85.9543 22.0035 83.8894 18.6078 81.1194 15.8359C78.3495 13.0639 74.9553 10.9966 71.2214 9.80718C67.4876 8.61777 63.523 8.34098 59.6601 9.00001L59.4501 9.06001H59.3401C59.1751 9.11839 59.0174 9.19556 58.8701 9.29001C55.6755 11.5565 53.0699 14.5548 51.2711 18.0342C49.4722 21.5136 48.5324 25.3731 48.5301 29.29V29.61L36.1901 54.53C31.5347 54.7441 27.01 56.1377 23.0409 58.5801C19.0718 61.0225 15.7886 64.4335 13.4994 68.4929C11.2102 72.5523 9.99021 77.1268 9.95396 81.7871C9.9177 86.4473 11.0664 91.0403 13.2921 95.1348C15.5179 99.2293 18.7477 102.691 22.6783 105.195C26.6089 107.699 31.1113 109.163 35.7628 109.449C40.4144 109.735 45.0624 108.835 49.2705 106.832C53.4786 104.83 57.1088 101.79 59.8201 98C62.4615 101.849 66.0396 104.962 70.217 107.045C74.3943 109.129 79.0335 110.114 83.697 109.908C88.3606 109.703 92.895 108.313 96.8727 105.87C100.851 103.427 104.141 100.011 106.433 95.9444C108.725 91.8779 109.944 87.2947 109.975 82.6267C110.006 77.9587 108.848 73.3597 106.609 69.2633C104.371 65.1668 101.126 61.7079 97.1813 59.2125C93.2361 56.717 88.7205 55.2673 84.0601 55V55.05ZM40.5901 54.68L49.5901 36.54C51.1676 41.723 54.43 46.2312 58.8601 49.35C59.1989 49.5909 59.6044 49.7202 60.0201 49.72C60.4358 49.7202 60.8413 49.5909 61.1801 49.35C65.6091 46.2301 68.8712 41.7223 70.4501 36.54L79.6701 55.16C75.81 55.564 72.079 56.7796 68.7218 58.727C65.3646 60.6745 62.4571 63.3098 60.1901 66.46C57.9594 63.2053 55.0545 60.4687 51.6726 58.4361C48.2907 56.4035 44.511 55.1225 40.5901 54.68ZM78.2901 18.68C80.4314 20.8257 82.071 23.4189 83.0911 26.2735C84.1113 29.1281 84.4866 32.1732 84.1901 35.19C80.2292 35.5792 76.2401 34.8189 72.7001 33C71.8837 32.5762 71.0984 32.095 70.3501 31.56C69.407 30.887 68.5207 30.1378 67.7001 29.32C65.5599 27.1735 63.9211 24.5802 62.901 21.7258C61.881 18.8714 61.505 15.8268 61.8001 12.81C64.8113 12.5141 67.8508 12.8868 70.7013 13.9016C73.5518 14.9163 76.1431 16.5479 78.2901 18.68ZM57.7001 15.73C57.9358 21.8955 60.4892 27.7451 64.8501 32.11C65.5287 32.7821 66.2466 33.4132 67.0001 34C65.9812 38.4095 63.5172 42.3518 60.0001 45.2C57.7362 43.3614 55.8952 41.0564 54.6026 38.442C53.3101 35.8275 52.5964 32.9652 52.5101 30.05C52.5101 29.82 52.5101 29.58 52.5101 29.35C52.5132 24.3275 54.3601 19.481 57.7001 15.73ZM37.5001 105.5C32.8522 105.5 28.3088 104.122 24.4442 101.54C20.5796 98.9573 17.5676 95.2871 15.7889 90.9931C14.0103 86.699 13.5449 81.9739 14.4516 77.4154C15.3584 72.8568 17.5966 68.6695 20.8831 65.383C24.1696 62.0965 28.3569 59.8583 32.9155 58.9516C37.474 58.0448 42.1991 58.5102 46.4932 60.2888C50.7872 62.0675 54.4574 65.0796 57.0396 68.9441C59.6218 72.8087 61.0001 77.3522 61.0001 82C60.9948 88.231 58.5172 94.2052 54.1113 98.6112C49.7053 103.017 43.7311 105.495 37.5001 105.5ZM82.5001 106C78.3664 106.008 74.3045 104.92 70.7281 102.847C67.1516 100.774 64.1884 97.7906 62.1401 94.2C63.9762 90.4989 64.9533 86.431 64.9983 82.2997C65.0433 78.1684 64.1552 74.0803 62.4001 70.34C64.5244 66.827 67.5319 63.9318 71.1231 61.9427C74.7144 59.9536 78.7641 58.94 82.8689 59.0028C86.9737 59.0656 90.9905 60.2026 94.5192 62.3007C98.048 64.3987 100.965 67.3846 102.981 70.9609C104.997 74.5372 106.041 78.5792 106.009 82.6844C105.976 86.7896 104.869 90.8148 102.798 94.359C100.726 97.9033 97.762 100.843 94.2007 102.885C90.6395 104.928 86.6054 106.002 82.5001 106Z"
        fill="#4A306D" />
    <path
        d="M83.1201 63H82.5001C79.7635 63.0067 77.0589 63.5878 74.5611 64.7058C72.0634 65.8238 69.8282 67.4536 68.0001 69.49C67.6468 69.8842 67.4642 70.4024 67.4923 70.931C67.5204 71.4596 67.757 71.9555 68.1501 72.31C68.5184 72.6398 68.9957 72.8214 69.4901 72.82C69.7742 72.8236 70.0558 72.7666 70.3162 72.6527C70.5766 72.5389 70.8097 72.371 71.0001 72.16C72.449 70.5429 74.2213 69.248 76.2023 68.3591C78.1833 67.4703 80.3288 67.0072 82.5001 67H82.8801C83.1427 67.0158 83.4059 66.9796 83.6546 66.8937C83.9033 66.8077 84.1326 66.6736 84.3294 66.4991C84.5263 66.3245 84.6868 66.1129 84.8019 65.8762C84.917 65.6396 84.9843 65.3826 85.0001 65.12C85.0158 64.8574 84.9797 64.5942 84.8938 64.3455C84.8078 64.0968 84.6737 63.8675 84.4991 63.6706C84.3246 63.4738 84.1129 63.3132 83.8763 63.1982C83.6397 63.0831 83.3827 63.0158 83.1201 63Z"
        fill="#4A306D" />
    <path
        d="M38.0599 62.54C37.8499 62.54 37.6499 62.54 37.4499 62.54C34.7121 62.5389 32.0046 63.1134 29.5031 64.2263C27.0017 65.3392 24.7622 66.9656 22.9299 69C22.5759 69.3978 22.3943 69.92 22.4253 70.4517C22.4562 70.9834 22.6971 71.4809 23.0949 71.835C23.4927 72.1891 24.0149 72.3706 24.5466 72.3397C25.0783 72.3087 25.5759 72.0678 25.9299 71.67C27.3853 70.0476 29.1658 68.7497 31.1557 67.8607C33.1457 66.9717 35.3004 66.5115 37.4799 66.51H37.8599C38.3904 66.5405 38.9112 66.359 39.3078 66.0055C39.7045 65.652 39.9444 65.1554 39.9749 64.625C40.0054 64.0946 39.824 63.5738 39.4704 63.1771C39.1169 62.7805 38.6204 62.5405 38.0899 62.51L38.0599 62.54Z"
        fill="#4A306D" />
    <path
        d="M52.51 30.06C52.51 29.83 52.51 29.59 52.51 29.36C52.5135 24.3328 54.3641 19.4821 57.71 15.73C57.9458 21.8955 60.4991 27.7451 64.86 32.11C65.5354 32.7817 66.25 33.4129 67 34C65.9811 38.4095 63.5171 42.3518 60 45.2C57.7373 43.3625 55.8971 41.0591 54.6046 38.4465C53.3121 35.8339 52.5977 32.9735 52.51 30.06Z"
        fill="#38E5C4" />
    <path
        d="M66.9999 34C65.981 38.4095 63.517 42.3518 59.9999 45.2C59.056 44.4325 58.1856 43.5788 57.3999 42.65L57.7299 42.93C61.1839 40.1227 63.619 36.2575 64.6599 31.93L64.8499 32.13C65.5291 32.7952 66.247 33.4196 66.9999 34Z"
        fill="#007EE9" />
    <path
        d="M67.68 29.29C65.5398 27.1435 63.9009 24.5501 62.8809 21.6958C61.8609 18.8414 61.4849 15.7968 61.78 12.78C64.7969 12.4812 67.8425 12.8555 70.6972 13.876C73.552 14.8966 76.1447 16.5379 78.2884 18.6816C80.4321 20.8253 82.0734 23.418 83.0939 26.2727C84.1145 29.1275 84.4888 32.1731 84.19 35.19C80.2291 35.5792 76.24 34.8189 72.7 33C71.8836 32.5761 71.0983 32.0949 70.35 31.56C69.3988 30.8783 68.5058 30.1191 67.68 29.29Z"
        fill="#38E5C4" />
</svg>