<svg width="120" height="120" viewBox="0 0 120 120" fill="none" xmlns="http://www.w3.org/2000/svg">
    <path
        d="M104.52 29C107.68 24.22 107.75 18.69 104.52 15.49C101.29 12.29 95.7901 12.34 91.0101 15.49C74.2901 7.15001 49.6001 13.83 31.7201 31.72C13.8401 49.61 7.15011 74.3 15.4801 91C12.3201 95.78 12.2501 101.31 15.4801 104.51C16.2891 105.296 17.2476 105.912 18.2988 106.32C19.3501 106.729 20.4727 106.923 21.6001 106.89C24.2476 106.826 26.8192 105.992 29.0001 104.49C33.9854 106.904 39.4614 108.133 45.0001 108.08C59.3101 108.08 75.5101 101.02 88.2401 88.28C106.17 70.4 112.85 45.7 104.52 29ZM85.4601 85.46C68.4001 102.51 44.9901 108.81 29.7801 100.46H29.7301C29.636 100.404 29.5352 100.361 29.4301 100.33H29.2501H29.0501H28.8501C28.7869 100.325 28.7233 100.325 28.6601 100.33C28.6002 100.325 28.54 100.325 28.4801 100.33H28.2801L28.1001 100.39L27.9201 100.46C27.8256 100.513 27.7354 100.573 27.6501 100.64H27.5901C24.2601 103.23 20.2801 103.7 18.3101 101.74C16.3401 99.78 16.8201 95.74 19.4101 92.46V92.41C19.4759 92.3205 19.536 92.227 19.5901 92.13L19.6501 91.96C19.6822 91.9002 19.7057 91.8363 19.7201 91.77C19.7248 91.7034 19.7248 91.6366 19.7201 91.57C19.7249 91.5101 19.7249 91.4499 19.7201 91.39C19.7251 91.3268 19.7251 91.2632 19.7201 91.2C19.7248 91.1334 19.7248 91.0666 19.7201 91C19.7249 90.9368 19.7249 90.8733 19.7201 90.81C19.7201 90.75 19.7201 90.68 19.6701 90.62C19.6353 90.5165 19.5918 90.4162 19.5401 90.32C19.5455 90.3038 19.5455 90.2862 19.5401 90.27C11.1901 75 17.4901 51.6 34.5401 34.54C51.5901 17.48 75.0201 11.18 90.2401 19.54H90.3301L90.5901 19.65C90.6589 19.6714 90.7291 19.6881 90.8001 19.7C90.8566 19.7056 90.9136 19.7056 90.9701 19.7H91.3601H91.5501H91.7401C91.8059 19.684 91.8696 19.6605 91.9301 19.63L92.1001 19.56C92.1943 19.5142 92.2847 19.4607 92.3701 19.4H92.4301C95.7601 16.81 99.7401 16.34 101.71 18.3C103.68 20.26 103.2 24.25 100.61 27.58V27.63C100.544 27.7195 100.484 27.813 100.43 27.91L100.37 28.08C100.338 28.1398 100.315 28.2037 100.3 28.27C100.295 28.3333 100.295 28.3968 100.3 28.46C100.296 28.5233 100.296 28.5867 100.3 28.65C100.295 28.7132 100.295 28.7768 100.3 28.84C100.295 28.9066 100.295 28.9734 100.3 29.04C100.295 29.1033 100.295 29.1668 100.3 29.23C100.3 29.29 100.3 29.36 100.35 29.42C100.381 29.5233 100.422 29.6236 100.47 29.72V29.77C108.81 45 102.51 68.4 85.4601 85.46Z"
        fill="#4A306D" />
    <path
        d="M85.46 85.46C68.4 102.51 44.99 108.81 29.78 100.46H29.73C29.6359 100.404 29.5351 100.361 29.43 100.33H29.25H29.05H28.85C28.7868 100.325 28.7232 100.325 28.66 100.33C28.6001 100.325 28.5399 100.325 28.48 100.33H28.28L28.1 100.39L27.92 100.46C27.8255 100.513 27.7352 100.573 27.65 100.64H27.59C24.26 103.23 20.28 103.7 18.31 101.74C16.34 99.78 16.82 95.74 19.41 92.46V92.41C19.4757 92.3205 19.5359 92.227 19.59 92.13L19.65 91.96C19.682 91.9002 19.7056 91.8363 19.72 91.77C19.7247 91.7034 19.7247 91.6366 19.72 91.57C19.7248 91.5101 19.7248 91.4499 19.72 91.39C19.725 91.3268 19.725 91.2632 19.72 91.2C19.7247 91.1334 19.7247 91.0666 19.72 91C19.7248 90.9368 19.7248 90.8732 19.72 90.81C19.72 90.75 19.72 90.68 19.67 90.62C19.6352 90.5165 19.5917 90.4162 19.54 90.32C19.5453 90.3038 19.5453 90.2862 19.54 90.27C11.19 75 17.49 51.6 34.54 34.54C51.59 17.48 75.02 11.18 90.24 19.54H90.33L90.59 19.65C90.6588 19.6714 90.729 19.6881 90.8 19.7C90.8565 19.7056 90.9135 19.7056 90.97 19.7H91.36H91.55H91.74C91.8058 19.684 91.8695 19.6605 91.93 19.63L92.1 19.56C92.1942 19.5142 92.2845 19.4606 92.37 19.4H92.43C95.76 16.81 99.74 16.34 101.71 18.3C103.68 20.26 103.2 24.25 100.61 27.58V27.63C100.544 27.7195 100.484 27.813 100.43 27.91L100.37 28.08C100.338 28.1398 100.314 28.2037 100.3 28.27C100.295 28.3332 100.295 28.3968 100.3 28.46C100.296 28.5233 100.296 28.5867 100.3 28.65C100.295 28.7132 100.295 28.7768 100.3 28.84C100.295 28.9066 100.295 28.9734 100.3 29.04C100.295 29.1032 100.295 29.1668 100.3 29.23C100.3 29.29 100.3 29.36 100.35 29.42C100.381 29.5233 100.421 29.6236 100.47 29.72V29.77C108.81 45 102.51 68.4 85.46 85.46Z"
        fill="#EAD637" />
    <path
        d="M30.9999 54C30.6517 54.0054 30.3077 53.9229 29.9999 53.76C29.7683 53.6344 29.5638 53.4643 29.3982 53.2594C29.2325 53.0546 29.109 52.819 29.0346 52.5663C28.9603 52.3135 28.9366 52.0486 28.965 51.7866C28.9933 51.5247 29.0732 51.271 29.1999 51.04C34.2943 41.872 41.8435 34.3055 50.9999 29.19C51.4667 28.9248 52.0197 28.8559 52.5373 28.9984C53.0549 29.1409 53.4947 29.4832 53.7599 29.95C54.0251 30.4168 54.094 30.9698 53.9515 31.4874C53.809 32.005 53.4667 32.4448 52.9999 32.71C44.4635 37.4313 37.4311 44.4636 32.7099 53C32.5362 53.3008 32.2872 53.5512 31.9874 53.7266C31.6875 53.9019 31.3472 53.9962 30.9999 54Z"
        fill="#4A306D" />
    <path
        d="M101.76 32.55C100.34 47.65 92.3101 64.2 78.9401 77.55C64.4201 92.07 46.1801 100.27 30.1001 100.55C45.3101 108.66 68.5201 102.33 85.4601 85.4C101.51 69.4 108 47.72 101.76 32.55Z"
        fill="#38E5C4" />
    <path
        d="M68.6401 26.23C68.9891 25.8801 69.2266 25.4347 69.3225 24.9499C69.4185 24.4651 69.3686 23.9628 69.1792 23.5063C68.9898 23.0499 68.6694 22.6598 68.2584 22.3854C67.8474 22.1109 67.3643 21.9645 66.8701 21.9645C66.3759 21.9645 65.8928 22.1109 65.4818 22.3854C65.0709 22.6598 64.7504 23.0499 64.561 23.5063C64.3716 23.9628 64.3217 24.4651 64.4177 24.9499C64.5136 25.4347 64.7511 25.8801 65.1001 26.23C65.5717 26.6954 66.2076 26.9563 66.8701 26.9563C67.5327 26.9563 68.1685 26.6954 68.6401 26.23Z"
        fill="#4A306D" />
    <path
        d="M74.3 33.89C74.649 33.5401 74.8865 33.0947 74.9825 32.6099C75.0784 32.1251 75.0285 31.6228 74.8391 31.1663C74.6497 30.7099 74.3293 30.3198 73.9183 30.0454C73.5073 29.7709 73.0242 29.6245 72.53 29.6245C72.0358 29.6245 71.5527 29.7709 71.1418 30.0454C70.7308 30.3198 70.4103 30.7099 70.2209 31.1663C70.0315 31.6228 69.9817 32.1251 70.0776 32.6099C70.1736 33.0947 70.411 33.5401 70.76 33.89C71.2316 34.3554 71.8675 34.6163 72.53 34.6163C73.1926 34.6163 73.8284 34.3554 74.3 33.89Z"
        fill="#4A306D" />
    <path
        d="M63 33.87C63.349 33.5201 63.5865 33.0746 63.6824 32.5899C63.7784 32.1051 63.7285 31.6027 63.5391 31.1463C63.3497 30.6898 63.0292 30.2998 62.6182 30.0253C62.2073 29.7509 61.7242 29.6045 61.23 29.6045C60.7358 29.6045 60.2527 29.7509 59.8417 30.0253C59.4307 30.2998 59.1103 30.6898 58.9209 31.1463C58.7315 31.6027 58.6816 32.1051 58.7776 32.5899C58.8735 33.0746 59.111 33.5201 59.46 33.87C59.9316 34.3353 60.5674 34.5963 61.23 34.5963C61.8925 34.5963 62.5284 34.3353 63 33.87Z"
        fill="#4A306D" />
</svg>