<svg width="103" height="37" viewBox="0 0 103 37" fill="none" xmlns="http://www.w3.org/2000/svg">
    <path
        d="M38.1293 22.0165H41.1719L43.5305 14.0776H43.6328L45.9915 22.0165H49.0405L52.8438 8.92557H49.3537L47.3722 17.5229H47.2635L45.0071 8.92557H42.1562L39.8999 17.5037H39.7912L37.8161 8.92557H34.3196L38.1293 22.0165ZM53.7009 22.0165H56.8266V12.1983H53.7009V22.0165ZM55.267 11.0541C56.1555 11.0541 56.8714 10.383 56.8714 9.55838C56.8714 8.73381 56.1555 8.06904 55.267 8.06904C54.3849 8.06904 53.6626 8.73381 53.6626 9.55838C53.6626 10.383 54.3849 11.0541 55.267 11.0541ZM61.4919 16.417C61.4983 15.2984 62.1502 14.6337 63.141 14.6337C64.1318 14.6337 64.7199 15.2857 64.7135 16.3723V22.0165H67.8392V15.7587C67.8456 13.547 66.4968 12.0705 64.4322 12.0705C62.9812 12.0705 61.8818 12.8055 61.4471 14.0009H61.3385V12.1983H58.3662V22.0165H61.4919V16.417ZM69.3244 22.0165H75.1987C78.0942 22.0165 79.7562 20.4696 79.7562 18.3538C79.7562 16.4618 78.3819 15.2729 76.7967 15.2026V15.0747C78.2349 14.7743 79.2448 13.7324 79.2448 12.2366C79.2448 10.2615 77.7235 8.92557 74.7832 8.92557H69.3244V22.0165ZM72.4884 19.4661V16.3467H74.5019C75.71 16.3467 76.4515 16.9859 76.4515 17.9895C76.4515 18.9163 75.8123 19.4661 74.4444 19.4661H72.4884ZM72.4884 14.3077V11.4376H74.291C75.3457 11.4376 76.0168 11.981 76.0168 12.8503C76.0168 13.7707 75.2754 14.3077 74.2398 14.3077H72.4884ZM80.8275 22.0165H83.9532V12.1983H80.8275V22.0165ZM82.3935 11.0541C83.282 11.0541 83.9979 10.383 83.9979 9.55838C83.9979 8.73381 83.282 8.06904 82.3935 8.06904C81.5114 8.06904 80.7891 8.73381 80.7891 9.55838C80.7891 10.383 81.5114 11.0541 82.3935 11.0541ZM90.0694 25.9028C93.0289 25.9028 95.0488 24.5541 95.0488 22.0548V12.1983H91.9359V13.8794H91.8464C91.4693 12.9781 90.6127 12.0705 89.0659 12.0705C87.014 12.0705 85.1539 13.6493 85.1539 17.0946C85.1539 20.4313 86.9245 21.8822 89.0787 21.8822C90.5233 21.8822 91.4885 21.2111 91.8592 20.3034H91.9679V22.0293C91.9679 23.2821 91.2008 23.7359 90.1525 23.7359C89.149 23.7359 88.5481 23.3524 88.3819 22.7452L85.4224 22.9114C85.6525 24.6308 87.2697 25.9028 90.0694 25.9028ZM90.1653 19.6067C89.0083 19.6067 88.3627 18.667 88.3627 17.0946C88.3627 15.5286 89.002 14.5122 90.1653 14.5122C91.3095 14.5122 91.9743 15.503 91.9743 17.0946C91.9743 18.6734 91.3031 19.6067 90.1653 19.6067Z"
        fill="#4A306D" />
    <path
        d="M8.95207 30.8349C8.15148 30.8349 7.49645 30.1799 7.49645 29.3793V28.4089C2.9355 25.9101 0 21.0337 0 15.7935C0 8.58816 5.48284 2.4503 12.5911 1.57692C12.9793 0.970414 13.5373 0.485207 14.2166 0.242604C14.5805 0.0727811 14.9686 0 15.3811 0C15.9633 0 16.5213 0.169822 17.0308 0.436686C17.516 0.169822 18.0982 0 18.7047 0C19.1657 0 19.6266 0.0970414 20.0391 0.291124C21.2035 0.824852 21.9799 1.98935 21.9799 3.29941C21.9799 3.42071 21.9799 3.54201 21.9556 3.63905C22.3923 3.90592 22.8047 4.19704 23.2172 4.51243C25.1822 6.06509 26.7349 8.10296 27.6568 10.432C28.3361 12.1302 28.7 13.9497 28.7 15.8177C28.7 17.6858 28.3604 19.5053 27.6568 21.2035C26.5166 24.042 24.503 26.4195 21.8343 28.045C21.4704 28.2633 21.0822 28.4817 20.6698 28.6757V29.3793C20.6698 30.1799 20.0148 30.8349 19.2142 30.8349H8.95207Z"
        fill="#F6BBCD" />
    <path
        d="M27.2443 15.7935C27.2443 20.4515 24.7698 24.5272 21.0822 26.7834C19.1171 27.9965 16.8124 28.6757 14.3378 28.6757C12.7609 28.6757 11.2325 28.3846 9.82539 27.8509C4.94906 26.0556 1.45557 21.3249 1.45557 15.7935C1.45557 8.68522 7.22953 2.91125 14.3621 2.91125C14.8715 2.91125 15.381 2.93552 15.8905 3.0083C18.2922 3.29942 20.4999 4.24557 22.3195 5.67693C25.3035 8.00593 27.2443 11.6692 27.2443 15.7935Z"
        fill="#007EE9" />
    <path
        d="M14.3619 29.1852C12.7607 29.1852 11.1838 28.8941 9.67968 28.3361C4.46371 26.3953 0.970215 21.3491 0.970215 15.7935C0.970215 8.41833 6.96252 2.42603 14.3619 2.42603C14.8957 2.42603 15.4294 2.45029 15.9389 2.52307C18.3649 2.81419 20.6939 3.76034 22.6104 5.28875C25.8613 7.83608 27.7294 11.6692 27.7294 15.8177C27.7294 20.5 25.3519 24.7698 21.3489 27.2201C19.2383 28.5059 16.8365 29.1852 14.3619 29.1852ZM14.3619 3.39644C7.49625 3.39644 1.94063 8.95206 1.94063 15.7935C1.94063 20.9367 5.19152 25.6189 9.99507 27.4142C11.3779 27.9237 12.8578 28.1905 14.3377 28.1905C16.6424 28.1905 18.8744 27.5597 20.8152 26.371C24.527 24.0905 26.7347 20.1361 26.7347 15.7935C26.7347 11.9603 25.0122 8.39407 21.9797 6.01656C20.1844 4.60946 18.0495 3.73608 15.7933 3.46922C15.3323 3.4207 14.8471 3.39644 14.3619 3.39644Z"
        fill="#4A306D" />
    <path
        d="M23.5326 14.629V22.4166C23.5326 23.3627 22.7806 24.1148 21.8344 24.1148H21.0823V26.3225C19.1173 27.5355 16.8125 28.2148 14.338 28.2148C12.761 28.2148 11.2326 27.9237 9.82554 27.3899V24.0905V22.1012C8.87939 22.1012 8.8066 22.0527 8.8066 21.1308L7.37524 13.9012V13.8769C7.37524 13.5615 7.44803 13.2461 7.56933 12.955C7.81193 12.397 8.27288 11.9603 8.85513 11.742C9.53442 11.4751 10.2622 11.5722 10.8445 11.9118C11.0386 11.2325 11.5238 10.6503 12.2516 10.3834C12.5184 10.2864 12.7853 10.2379 13.0764 10.2379C13.8042 10.2379 14.4835 10.6018 14.9202 11.1598L15.9391 8.61242L14.5563 5.50709V5.48283C14.1196 4.29408 14.6776 2.98402 15.8421 2.52307C18.2439 2.8142 20.4516 3.76035 22.2711 5.19171C22.2468 5.33727 22.1983 5.48283 22.1255 5.6284L20.9368 8.53964L23.3386 13.9497C23.4841 14.1438 23.5326 14.3864 23.5326 14.629Z"
        fill="#4A306D" />
    <path
        d="M22.0283 12.5669L19.6266 7.15685L20.8153 4.24561C20.9609 3.95448 21.0094 3.6391 21.0094 3.29945C21.0094 2.37756 20.4757 1.55271 19.6508 1.1888C18.7532 0.776376 17.71 1.01898 17.055 1.69827C16.594 1.23732 16.0118 0.970459 15.381 0.970459C15.0899 0.970459 14.823 1.01898 14.5562 1.11602C13.3674 1.57697 12.7609 2.91129 13.2218 4.1243V4.14857L14.6047 7.25389L13.5857 9.80123C13.1491 9.21898 12.4698 8.87933 11.742 8.87933C11.4751 8.87933 11.184 8.92786 10.9171 9.0249C10.2136 9.29176 9.70408 9.87401 9.51 10.5533C8.92775 10.2137 8.19994 10.1166 7.52065 10.3835C6.9384 10.6018 6.47746 11.0385 6.23485 11.5965C6.11355 11.8876 6.04077 12.203 6.04077 12.5184V12.5426V21.058C6.04077 22.0042 6.79284 22.7563 7.739 22.7563H8.49107V25.8373V29.4036C8.49107 29.6705 8.70941 29.8888 8.97627 29.8888H19.2627C19.5295 29.8888 19.7479 29.6705 19.7479 29.4036V25.8373V22.732H20.4999C21.4461 22.732 22.1982 21.9799 22.1982 21.0338V18.5835V18.0497V14.9444V13.2705C22.1739 13.0279 22.1254 12.7853 22.0283 12.5669ZM14.7502 18.0983C14.0224 18.0983 13.4159 17.4918 13.4159 16.7639C13.4159 16.4 13.5615 16.0604 13.8041 15.8178C14.0467 15.5752 14.3863 15.4296 14.7502 15.4296H18.5591H21.2035V18.074V18.1225H14.7502V18.0983ZM19.2384 2.06217C19.7236 2.28052 20.039 2.76573 20.039 3.29945C20.039 3.49354 19.9905 3.66336 19.9177 3.85744L19.0928 5.91957L17.5887 2.54738C17.9283 2.01365 18.6319 1.79531 19.2384 2.06217ZM14.8958 2.03791C15.0414 1.98939 15.2112 1.94087 15.381 1.94087C15.939 1.94087 16.4485 2.28052 16.6425 2.81425V2.83851L18.6562 7.35093L21.155 12.9551C21.2035 13.0521 21.2277 13.1492 21.2277 13.2462V14.435H18.8988L14.1195 3.7604C13.8526 3.08111 14.2165 2.30478 14.8958 2.03791ZM17.807 14.4592H15.5993C15.5751 14.4107 15.5751 14.3622 15.5508 14.3137L14.1437 10.9657L15.1384 8.46691L17.807 14.4592ZM11.2567 9.92253C11.4023 9.87401 11.5721 9.82549 11.742 9.82549C12.2999 9.82549 12.8094 10.1651 13.0035 10.6989L14.5804 14.4592C14.0224 14.5077 13.513 14.7261 13.1248 15.1385C12.8337 15.4296 12.6396 15.7693 12.5425 16.1574C12.3727 16.0119 12.2514 15.8421 12.1786 15.6237L10.4804 11.645C10.2136 10.9657 10.5532 10.1894 11.2567 9.92253ZM7.10823 11.9847C7.25379 11.6693 7.52065 11.4024 7.8603 11.2811C8.00586 11.2326 8.17568 11.1841 8.34551 11.1841C8.53959 11.1841 8.70941 11.2326 8.90349 11.3054C9.21888 11.4509 9.48574 11.7178 9.60704 12.0574L11.281 16.0119C11.4023 16.3515 11.4023 16.7154 11.2567 17.0308C11.1112 17.3462 10.8443 17.6131 10.5047 17.7344C9.80113 18.0012 9.02479 17.6373 8.78219 16.958C8.78219 16.958 8.78219 16.958 8.78219 16.9338L7.10823 12.9793C6.96266 12.6882 6.96266 12.3243 7.10823 11.9847ZM6.98693 21.0338V15.3083L7.8603 17.3462C8.2242 18.2681 9.09758 18.8261 10.0195 18.8261C10.2863 18.8261 10.5775 18.7776 10.8443 18.6805C11.5479 18.4137 12.0573 17.8314 12.2514 17.1521C12.3242 17.2006 12.4212 17.2492 12.494 17.2734C12.7366 18.3166 13.6585 19.0929 14.7502 19.0929H15.478C14.8715 19.8693 14.4834 20.7912 14.3621 21.7858H8.95201H7.739C7.32657 21.7616 6.98693 21.4462 6.98693 21.0338ZM18.7532 28.8941H9.43722V26.2983H18.7532V28.8941ZM18.7532 25.3279H9.43722V22.732H14.7988H18.7289V25.3279H18.7532ZM20.4757 21.7616H19.2627H15.3325C15.478 20.7184 16.0118 19.748 16.8366 19.0687H21.2035V21.0338C21.2035 21.4462 20.8638 21.7616 20.4757 21.7616Z"
        fill="#4A306D" />
    <path d="M18.7532 22.7319H9.43726V25.3278H18.7532V22.7319Z" fill="#FF8E72" />
    <path d="M18.7532 26.2982H9.43726V28.8941H18.7532V26.2982Z" fill="#007EE9" />
    <path d="M18.7533 22.7319H10.1409V24.6242H18.7533V22.7319Z" fill="#F6BBCD" />
    <path d="M18.7533 26.2982H10.1409V28.1905H18.7533V26.2982Z" fill="#38E5C4" />
    <path
        d="M11.3053 16.861C11.281 16.9338 11.2568 17.0066 11.2325 17.0551C11.087 17.3705 10.8201 17.6373 10.4804 17.7586C10.4562 17.7586 10.4077 17.7829 10.3834 17.7829C9.72838 17.977 9.00057 17.6373 8.75796 16.958C8.75796 16.958 8.75796 16.958 8.75796 16.9338L8.1272 15.4296L7.93311 15.0415L7.084 13.0036C6.9627 12.664 6.9627 12.3001 7.10826 11.9847C7.25382 11.6693 7.52069 11.4024 7.86033 11.2811C7.90885 11.2569 7.95737 11.2569 7.98163 11.2326C8.10294 11.2083 8.19998 11.1841 8.32128 11.1841C8.51536 11.1841 8.68518 11.2326 8.87927 11.3054C9.17039 11.4267 9.38873 11.645 9.5343 11.9362C9.55856 11.9847 9.58282 12.0332 9.58282 12.0575L11.2568 16.0119C11.3781 16.303 11.3781 16.5941 11.3053 16.861Z"
        fill="#FF8E72" />
    <path
        d="M15.4781 19.0687C15.1142 19.5297 14.7988 20.0634 14.629 20.6456C14.6047 20.6941 14.5805 20.7669 14.5805 20.8155C14.4834 21.1308 14.4106 21.4462 14.3864 21.7616H8.95206H7.73904C7.35088 21.7616 7.01123 21.4462 7.01123 21.0338V15.3083L7.8846 17.3462C7.90886 17.419 7.93312 17.4675 7.98164 17.5403C8.36981 18.3409 9.19466 18.8261 10.0438 18.8261C10.3106 18.8261 10.6018 18.7776 10.8686 18.6805C11.4024 18.4865 11.839 18.074 12.0816 17.6131C12.1544 17.4675 12.2272 17.2977 12.2757 17.1521C12.3485 17.2007 12.4455 17.2492 12.5183 17.2734V17.2977C12.7609 18.3166 13.6828 19.0687 14.7745 19.0687H15.4781Z"
        fill="#FF8E72" />
    <path
        d="M17.8071 14.4592H15.5994C15.5752 14.4107 15.5752 14.3622 15.5509 14.3137L15.284 13.6344L14.1438 10.9657L15.1385 8.46692L15.4296 9.14621L17.3704 13.5131L17.4189 13.6344L17.8071 14.4592Z"
        fill="#FF8E72" />
    <path
        d="M20.039 3.27512C20.039 3.4692 19.9905 3.66328 19.9177 3.8331L19.7236 4.29405L19.0686 5.91949L17.5645 2.5473C17.8071 2.15914 18.2437 1.9408 18.6804 1.9408C18.8745 1.9408 19.0686 1.98932 19.2384 2.0621C19.7236 2.28044 20.039 2.76565 20.039 3.27512Z"
        fill="#FF8E72" />
    <path
        d="M21.2037 13.2461V14.4349H18.8747L14.1197 3.76032C14.1197 3.73606 14.0955 3.7118 14.0955 3.68754C13.8771 3.00825 14.241 2.28044 14.8961 2.03784C14.9446 2.01358 14.9688 2.01358 15.0174 1.98932C15.1387 1.96506 15.26 1.9408 15.3813 1.9408C15.9392 1.9408 16.4487 2.28044 16.6428 2.81417V2.83843L18.6321 7.35085L20.573 11.7177L20.8156 12.2272L21.131 12.955C21.1795 13.052 21.2037 13.1491 21.2037 13.2461Z"
        fill="#FF8E72" />
    <path
        d="M21.2036 15.4296V18.1225H14.7503C14.0225 18.1225 13.416 17.516 13.416 16.7881C13.416 16.6668 13.4403 16.5455 13.4645 16.4242C13.4645 16.4 13.4888 16.3757 13.4888 16.3515C13.5616 16.1574 13.6586 15.9876 13.8042 15.842C13.974 15.6722 14.1923 15.5509 14.4107 15.5023C14.532 15.4781 14.629 15.4538 14.7503 15.4538H21.2036V15.4296Z"
        fill="#FF8E72" />
    <path
        d="M21.2035 19.0687V21.0338C21.2035 21.4462 20.8881 21.7616 20.4757 21.7616H19.2627H15.3325C15.381 21.422 15.4538 21.1066 15.5751 20.7912C15.842 20.1362 16.2544 19.5297 16.8124 19.0687H21.2035Z"
        fill="#FF8E72" />
    <path
        d="M11.3052 16.861C10.6502 17.0308 9.94662 16.6912 9.70401 16.0361C9.70401 16.0361 9.70401 16.0361 9.70401 16.0119L9.07324 14.5077L8.03005 12.0332C7.93301 11.7663 7.90875 11.4752 7.98153 11.2083C8.10283 11.1841 8.19987 11.1598 8.32117 11.1598C8.51525 11.1598 8.68508 11.2083 8.87916 11.2811C9.17028 11.4024 9.38863 11.6207 9.53419 11.9119C9.55845 11.9604 9.58271 12.0089 9.58271 12.0332L11.2567 15.9876C11.378 16.303 11.378 16.5941 11.3052 16.861Z"
        fill="#F6BBCD" />
    <path
        d="M14.5805 14.4592C14.2651 14.4834 13.9497 14.5805 13.6586 14.726C13.5131 14.7988 13.3917 14.8716 13.2704 14.9929C13.2219 15.0414 13.1734 15.0899 13.1006 15.1385C12.8095 15.4296 12.6154 15.7692 12.4941 16.1574C12.3243 16.0118 12.203 15.8177 12.1302 15.6237L11.4994 14.071L10.4805 11.645C10.2136 10.9414 10.5775 10.1893 11.2568 9.92248C11.3054 9.89822 11.3539 9.89822 11.3781 9.87396C11.4994 9.8497 11.5965 9.82544 11.7178 9.82544C12.2273 9.82544 12.6882 10.1166 12.9308 10.5775C12.9551 10.626 12.9793 10.6503 12.9793 10.6988L14.3379 13.9254L14.5805 14.4592Z"
        fill="#FF8E72" />
    <path
        d="M14.3379 13.9497C14.2408 14.0225 14.1438 14.0953 14.0467 14.1923C13.8769 14.3622 13.7556 14.532 13.6343 14.7261C13.4888 14.7988 13.3675 14.8716 13.2461 14.9929C13.1734 14.8959 13.1248 14.7746 13.0763 14.6775L12.4213 13.1491L11.4024 10.7231C11.3053 10.4562 11.2811 10.1651 11.3538 9.89825C11.4751 9.87399 11.5722 9.84973 11.6935 9.84973C12.203 9.84973 12.6639 10.1409 12.9065 10.6018C12.9308 10.6503 12.955 10.6746 12.955 10.7231L14.3379 13.9497Z"
        fill="#F6BBCD" />
    <path
        d="M14.5803 14.4592C14.265 14.4834 13.9496 14.5805 13.6584 14.726C13.7555 14.532 13.9011 14.3379 14.0709 14.1923C14.1679 14.0953 14.265 14.0225 14.362 13.9497L14.5803 14.4592Z"
        fill="#F6BBCD" />
    <path
        d="M15.478 19.0686C15.1141 19.5296 14.7987 20.0633 14.6289 20.6455C14.6046 20.6941 14.5804 20.7668 14.5804 20.8154H9.8981H8.68509C8.27266 20.8154 7.95728 20.4757 7.95728 20.0875V17.5402C8.34544 18.3408 9.17029 18.826 10.0194 18.826C10.2863 18.826 10.5774 18.7775 10.8443 18.6804C11.378 18.4864 11.8147 18.0739 12.0573 17.613C12.2271 17.5159 12.3727 17.4189 12.5182 17.2976C12.7608 18.3165 13.6827 19.0686 14.7744 19.0686H15.478Z"
        fill="#F6BBCD" />
    <path
        d="M17.3946 13.5131H16.5697C16.5455 13.4646 16.5455 13.4161 16.5212 13.3675L16.2301 12.6883L15.0898 10.0196L15.4537 9.14624L17.3946 13.5131Z"
        fill="#F6BBCD" />
    <path
        d="M20.039 3.27512C20.039 3.4692 19.9905 3.66328 19.9177 3.8331L19.7236 4.29405L18.6804 1.9408C18.8745 1.9408 19.0686 1.98932 19.2384 2.0621C19.7236 2.28044 20.039 2.76565 20.039 3.27512Z"
        fill="#F6BBCD" />
    <path
        d="M21.2035 13.2461V13.4887H19.8207L15.0657 2.81417C15.0657 2.78991 15.0414 2.76565 15.0414 2.74139C14.9686 2.49878 14.9686 2.23192 15.0414 1.98932C15.1384 1.96506 15.2597 1.9408 15.381 1.9408C15.939 1.9408 16.4485 2.28044 16.6426 2.81417V2.83843L18.6319 7.35085L20.5728 11.7177L20.8154 12.2272L21.1308 12.955C21.1793 13.052 21.2035 13.1491 21.2035 13.2461Z"
        fill="#F6BBCD" />
    <path
        d="M21.2035 15.4296V17.152H15.6964C14.9443 17.152 14.3621 16.5455 14.3621 15.8177C14.3621 15.6964 14.3863 15.5751 14.4106 15.4781C14.5319 15.4538 14.6289 15.4296 14.7502 15.4296H21.2035Z"
        fill="#F6BBCD" />
    <path
        d="M21.2037 19.0687V20.8155H20.209C20.209 20.8155 20.209 20.8155 20.1847 20.8155H16.2788C16.3273 20.4758 16.4001 20.1604 16.5457 19.8451C16.6427 19.5782 16.7883 19.3113 16.9338 19.0687H21.2037Z"
        fill="#F6BBCD" />
    <path
        d="M12.4942 17.2977C12.3486 17.419 12.203 17.516 12.0332 17.613C12.106 17.4675 12.1788 17.2977 12.2273 17.1521C12.3001 17.2006 12.3971 17.2491 12.4699 17.2734C12.4942 17.2734 12.4942 17.2977 12.4942 17.2977Z"
        fill="#F6BBCD" />
</svg>