<svg width="120" height="120" viewBox="0 0 120 120" fill="none" xmlns="http://www.w3.org/2000/svg">
    <path
        d="M59.1001 18.9C50.5955 18.9 42.2819 21.4219 35.2106 26.1468C28.1393 30.8717 22.6279 37.5874 19.3733 45.4446C16.1187 53.3018 15.2672 61.9477 16.9263 70.2889C18.5855 78.6301 22.6809 86.2919 28.6945 92.3056C34.7082 98.3192 42.3701 102.415 50.7112 104.074C59.0524 105.733 67.6983 104.881 75.5555 101.627C83.4127 98.3722 90.1284 92.8608 94.8533 85.7895C99.5782 78.7182 102.1 70.4046 102.1 61.9C102.1 50.4957 97.5698 39.5585 89.5057 31.4944C81.4416 23.4303 70.5044 18.9 59.1001 18.9Z"
        fill="#FF8E72" />
    <path
        d="M84.0801 26.92C90.0169 35.203 92.819 45.3252 91.9867 55.482C91.1544 65.6388 86.7419 75.1699 79.5359 82.3759C72.3299 89.5819 62.7988 93.9944 52.6421 94.8266C42.4853 95.6589 32.363 92.8568 24.0801 86.92C27.7147 91.991 32.4094 96.2104 37.8382 99.2852C43.267 102.36 49.2999 104.217 55.5181 104.726C61.7363 105.236 67.991 104.386 73.8479 102.236C79.7048 100.086 85.0237 96.687 89.4354 92.2754C93.8471 87.8637 97.2459 82.5448 99.396 76.6878C101.546 70.8309 102.396 64.5763 101.886 58.358C101.377 52.1398 99.5201 46.1069 96.4453 40.6781C93.3705 35.2493 89.1511 30.5547 84.0801 26.92Z"
        fill="#FF5F4B" />
    <path
        d="M101.9 29.7C99.7537 31.8408 97.1606 33.4808 94.3064 34.5025C91.4522 35.5242 88.4075 35.9024 85.3901 35.61C85.0931 32.5922 85.469 29.5461 86.4907 26.691C87.5124 23.8359 89.1545 21.2429 91.2987 19.0986C93.443 16.9544 96.036 15.3123 98.8911 14.2906C101.746 13.2689 104.792 12.893 107.81 13.19C108.102 16.2074 107.724 19.2521 106.703 22.1063C105.681 24.9605 104.041 27.5536 101.9 29.7Z"
        fill="#38E5C4" />
    <path
        d="M101.9 29.7C99.7536 31.8408 97.1605 33.4808 94.3063 34.5025C91.4521 35.5242 88.4074 35.9024 85.39 35.61C85.2987 34.6395 85.2719 33.664 85.31 32.69C90.4291 32.4604 95.277 30.3238 98.9004 26.7004C102.524 23.0771 104.66 18.2291 104.89 13.11C105.864 13.0668 106.84 13.0936 107.81 13.19C108.102 16.2074 107.724 19.2521 106.702 22.1063C105.681 24.9605 104.041 27.5536 101.9 29.7Z"
        fill="#007EE9" />
    <path
        d="M98.8599 36.86C98.1399 35.72 97.3699 34.61 96.5499 33.54C95.3021 34.1641 93.9914 34.6535 92.6399 35C93.5235 36.101 94.3512 37.2458 95.1199 38.43C100.927 47.3355 103.229 58.0766 101.582 68.5798C99.9347 79.083 94.4548 88.6036 86.2001 95.3037C77.9454 102.004 67.5013 105.408 56.8838 104.86C46.2664 104.312 36.2284 99.8497 28.7077 92.335C21.1871 84.8204 16.7169 74.786 16.1602 64.1689C15.6035 53.5519 18.9997 43.1051 25.6933 34.8451C32.3868 26.5851 41.903 21.0976 52.4049 19.4419C62.9068 17.7863 73.6498 20.0799 82.5599 25.88C83.7476 26.6482 84.8957 27.4759 85.9999 28.36C86.3528 27.0077 86.8489 25.697 87.4799 24.45C86.4099 23.63 85.2999 22.86 84.1599 22.14C74.3844 15.9714 62.6786 13.6215 51.2798 15.5393C39.881 17.4572 29.5887 23.5083 22.37 32.5361C15.1513 41.5639 11.5126 52.9352 12.1493 64.4767C12.786 76.0182 17.6534 86.9203 25.8213 95.0993C33.9892 103.278 44.8847 108.161 56.4253 108.813C67.9659 109.465 79.3422 105.842 88.3798 98.6357C97.4174 91.4293 103.483 81.1452 105.416 69.749C107.349 58.3528 105.015 46.6438 98.8599 36.86Z"
        fill="#4A306D" />
    <path
        d="M82.5599 25.88C81.3988 29.3579 81.0332 33.052 81.4899 36.69L85.2999 32.88C85.3667 31.3522 85.6014 29.8364 85.9999 28.36C84.8957 27.4759 83.7476 26.6482 82.5599 25.88ZM111.71 12.11C111.71 11.77 111.61 11.42 111.55 11.11C111.48 10.7033 111.285 10.3284 110.993 10.0365C110.702 9.74471 110.327 9.55031 109.92 9.47999L108.92 9.31999C103.975 8.67915 98.9531 9.56336 94.5248 11.8544C90.0965 14.1454 86.4733 17.7339 84.1399 22.14C83.5048 23.338 82.9761 24.5895 82.5599 25.88C81.3988 29.3579 81.0332 33.052 81.4899 36.69C81.5399 37.03 81.5899 37.38 81.6499 37.69C81.7202 38.0967 81.9146 38.4716 82.2064 38.7634C82.4983 39.0553 82.8732 39.2497 83.2799 39.32L84.2799 39.48C87.9172 39.9341 91.61 39.572 95.0899 38.42C96.38 37.9986 97.6313 37.4666 98.8299 36.83C100.994 35.6922 102.974 34.2322 104.7 32.5C107.342 29.8584 109.347 26.6488 110.562 23.1154C111.777 19.582 112.169 15.818 111.71 12.11ZM101.9 29.7C100.338 31.2628 98.5304 32.5599 96.5499 33.54C95.3021 34.1641 93.9914 34.6535 92.6399 35C90.2794 35.6368 87.8223 35.8368 85.3899 35.59C85.1521 33.1629 85.3588 30.7129 85.9999 28.36C86.3528 27.0077 86.8489 25.697 87.4799 24.45C88.4539 22.4709 89.7442 20.6638 91.2999 19.1C94.9714 15.4326 99.894 13.2893 105.08 13.1C105.991 13.0702 106.903 13.1003 107.81 13.19C107.9 14.097 107.93 15.009 107.9 15.92C107.709 21.1055 105.566 26.0273 101.9 29.7Z"
        fill="#4A306D" />
    <path
        d="M85.7101 38.11L84.2001 39.62L81.3701 42.45L84.3101 39.51L76.5101 47.31C76.3308 47.5194 76.1101 47.6894 75.862 47.8095C75.6139 47.9295 75.3436 47.997 75.0682 48.0076C74.7927 48.0182 74.5181 47.9718 74.2614 47.8713C74.0048 47.7707 73.7717 47.6182 73.5768 47.4233C73.3818 47.2284 73.2293 46.9953 73.1288 46.7387C73.0282 46.482 72.9818 46.2073 72.9925 45.9319C73.0031 45.6565 73.0706 45.3862 73.1906 45.1381C73.3107 44.8899 73.4807 44.6693 73.6901 44.49L82.8901 35.29L83.8901 35.45C84.2967 35.5203 84.6717 35.7147 84.9635 36.0065C85.2553 36.2984 85.4497 36.6733 85.5201 37.08C85.6101 37.42 85.6601 37.77 85.7101 38.11Z"
        fill="#4A306D" />
</svg>