<svg width="120" height="120" viewBox="0 0 120 120" fill="none" xmlns="http://www.w3.org/2000/svg">
    <path
        d="M84.7966 22.0366L22.0566 84.7766C30.4972 92.4808 41.5829 96.6347 53.0078 96.3743C64.4328 96.1138 75.3177 91.4592 83.3985 83.3784C91.4792 75.2976 96.1339 64.4128 96.3943 52.9878C96.6548 41.5628 92.5008 30.4771 84.7966 22.0366Z"
        fill="#F6BBCD" />
    <path
        d="M13.8564 92.9765C24.4786 102.829 38.5056 108.181 52.9907 107.908C67.4758 107.636 81.2918 101.761 91.5361 91.5162C101.78 81.2719 107.656 67.4559 107.928 52.9708C108.201 38.4857 102.848 24.4587 92.9964 13.8365L87.6164 19.2166C96.0786 28.4054 100.66 40.5103 100.403 52.9994C100.146 65.4885 95.0706 77.3947 86.2376 86.2277C77.4046 95.0607 65.4984 100.136 53.0093 100.393C40.5202 100.65 28.4153 96.0687 19.2264 87.6066L13.8564 92.9765Z"
        fill="#38E5C4" />
    <path
        d="M22.0566 84.7766C28.7235 90.8693 37.0901 94.7836 46.0398 95.9968C54.9895 97.21 64.0962 95.6644 72.1445 91.5664C80.1928 87.4683 86.7995 81.0128 91.0828 73.0617C95.3661 65.1105 97.1222 56.0419 96.1166 47.0666C95.2632 54.6041 92.4923 61.7971 88.0685 67.9593C83.6447 74.1215 77.7156 79.0473 70.8469 82.2665C63.9782 85.4857 56.3991 86.8911 48.8328 86.3484C41.2666 85.8057 33.9656 83.3331 27.6266 79.1666L22.0566 84.7766Z"
        fill="#FF8E72" />
    <path
        d="M13.8564 92.9766C22.1471 100.682 32.5781 105.694 43.7745 107.353C54.9709 109.012 66.407 107.238 76.5755 102.267C86.744 97.2963 95.1675 89.3606 100.736 79.5063C106.304 69.6521 108.755 58.3419 107.766 47.0666C107.073 54.9624 104.709 62.6207 100.832 69.5339C96.9543 76.4471 91.6521 82.4574 85.2764 87.1666C76.3659 95.5643 64.6068 100.278 52.3629 100.359C40.119 100.441 28.2981 95.8847 19.2764 87.6066L13.8564 92.9766Z"
        fill="#007EE9" />
    <path
        d="M9.58658 94.4166C9.40063 94.2308 9.25311 94.0103 9.15247 93.7675C9.05182 93.5247 9 93.2644 9 93.0016C9 92.7388 9.05182 92.4785 9.15247 92.2357C9.25311 91.9929 9.40063 91.7723 9.58658 91.5866L91.5866 9.58658C91.7724 9.40063 91.9929 9.25311 92.2357 9.15247C92.4785 9.05182 92.7388 9 93.0016 9C93.2644 9 93.5247 9.05182 93.7675 9.15247C94.0103 9.25311 94.2308 9.40063 94.4166 9.58658C105.517 20.8697 111.71 36.0822 111.646 51.9104C111.581 67.7386 105.265 82.9002 94.0725 94.0925C82.8802 105.285 67.7186 111.601 51.8904 111.666C36.0622 111.73 20.8497 105.537 9.56659 94.4366L9.58658 94.4166ZM13.8566 92.9766C24.4787 102.829 38.5057 108.181 52.9908 107.908C67.476 107.636 81.2919 101.761 91.5363 91.5162C101.781 81.2719 107.656 67.456 107.928 52.9708C108.201 38.4857 102.849 24.4587 92.9966 13.8366L13.8566 92.9766Z"
        fill="#4A306D" />
    <path
        d="M17.7865 86.2166C17.6006 86.0308 17.4531 85.8102 17.3524 85.5674C17.2518 85.3246 17.2 85.0644 17.2 84.8016C17.2 84.5387 17.2518 84.2785 17.3524 84.0357C17.4531 83.7929 17.6006 83.5723 17.7865 83.3866L83.4065 17.7666C83.5923 17.5806 83.8128 17.4331 84.0556 17.3324C84.2984 17.2318 84.5587 17.18 84.8215 17.18C85.0844 17.18 85.3446 17.2318 85.5874 17.3324C85.8302 17.4331 86.0508 17.5806 86.2365 17.7666C95.3135 26.8436 100.413 39.1547 100.413 51.9916C100.413 64.8284 95.3135 77.1395 86.2365 86.2166C77.1595 95.2936 64.8484 100.393 52.0115 100.393C39.1747 100.393 26.8636 95.2936 17.7865 86.2166ZM22.0565 84.7666C30.4952 92.4656 41.5765 96.616 52.9966 96.3549C64.4167 96.0937 75.2967 91.4412 83.3747 83.3645C91.4527 75.2878 96.1069 64.4085 96.3699 52.9885C96.6328 41.5685 92.4842 30.4865 84.7865 22.0466L22.0565 84.7666Z"
        fill="#4A306D" />
    <path
        d="M62.0664 58.9366C62.0684 58.323 61.8883 57.7227 61.5489 57.2116C61.2094 56.7005 60.726 56.3016 60.1597 56.0654C59.5934 55.8293 58.9698 55.7664 58.3678 55.8849C57.7658 56.0034 57.2125 56.2979 56.778 56.731C56.3434 57.1641 56.0472 57.7165 55.9268 58.3181C55.8063 58.9197 55.8671 59.5435 56.1015 60.1106C56.3358 60.6776 56.7331 61.1623 57.2431 61.5034C57.7531 61.8445 58.3529 62.0266 58.9664 62.0266C59.7869 62.0266 60.5739 61.7013 61.1549 61.1221C61.736 60.5429 62.0638 59.757 62.0664 58.9366Z"
        fill="#4A306D" />
    <path
        d="M63.8165 70.5866C63.8165 69.9735 63.6346 69.3741 63.294 68.8643C62.9534 68.3545 62.4692 67.9572 61.9028 67.7225C61.3363 67.4879 60.713 67.4265 60.1117 67.5461C59.5103 67.6658 58.958 67.961 58.5244 68.3945C58.0909 68.8281 57.7956 69.3805 57.676 69.9818C57.5564 70.5831 57.6178 71.2064 57.8524 71.7729C58.0871 72.3394 58.4844 72.8235 58.9942 73.1641C59.504 73.5048 60.1033 73.6866 60.7165 73.6866C61.5386 73.6866 62.3271 73.36 62.9085 72.7786C63.4899 72.1972 63.8165 71.4087 63.8165 70.5866Z"
        fill="#4A306D" />
    <path
        d="M73.6866 60.6866C73.6885 60.0726 73.5081 59.4719 73.1683 58.9606C72.8284 58.4492 72.3444 58.0504 71.7775 57.8145C71.2106 57.5786 70.5865 57.5164 69.9843 57.6357C69.382 57.755 68.8287 58.0504 68.3945 58.4846C67.9604 58.9187 67.6649 59.472 67.5457 60.0743C67.4264 60.6765 67.4886 61.3007 67.7245 61.8675C67.9603 62.4344 68.3592 62.9184 68.8705 63.2583C69.3819 63.5982 69.9826 63.7786 70.5966 63.7766C71.4153 63.7739 72.1997 63.4475 72.7786 62.8686C73.3575 62.2897 73.6839 61.5053 73.6866 60.6866Z"
        fill="#4A306D" />
    <path
        d="M77.4568 50.7566C77.4568 51.3697 77.6386 51.969 77.9793 52.4788C78.3199 52.9886 78.804 53.386 79.3705 53.6206C79.937 53.8552 80.5603 53.9166 81.1616 53.797C81.7629 53.6774 82.3153 53.3821 82.7489 52.9486C83.1824 52.5151 83.4776 51.9627 83.5972 51.3613C83.7169 50.76 83.6555 50.1367 83.4209 49.5703C83.1862 49.0038 82.7889 48.5196 82.2791 48.179C81.7693 47.8384 81.1699 47.6566 80.5568 47.6566C80.1493 47.6553 79.7456 47.7345 79.3689 47.8898C78.9922 48.0452 78.65 48.2735 78.3618 48.5616C78.0737 48.8497 77.8454 49.192 77.6901 49.5687C77.5348 49.9454 77.4555 50.3491 77.4568 50.7566Z"
        fill="#4A306D" />
    <path
        d="M65.8064 49.0066C65.8064 49.6201 65.9885 50.2199 66.3296 50.7299C66.6707 51.2399 67.1554 51.6372 67.7224 51.8715C68.2895 52.1059 68.9133 52.1667 69.5149 52.0463C70.1165 51.9258 70.6688 51.6296 71.102 51.195C71.5351 50.7605 71.8296 50.2072 71.9481 49.6052C72.0666 49.0032 72.0037 48.3796 71.7676 47.8133C71.5314 47.247 71.1325 46.7636 70.6214 46.4241C70.1103 46.0847 69.51 45.9046 68.8964 45.9066C68.4898 45.9066 68.0872 45.9868 67.7116 46.1427C67.3361 46.2986 66.995 46.5271 66.7079 46.8151C66.4208 47.1031 66.1934 47.4449 66.0387 47.821C65.884 48.1971 65.8051 48.5999 65.8064 49.0066Z"
        fill="#4A306D" />
    <path
        d="M75.7068 39.1666C75.7048 39.7801 75.885 40.3804 76.2244 40.8916C76.5638 41.4027 77.0473 41.8015 77.6135 42.0377C78.1798 42.2739 78.8034 42.3367 79.4054 42.2182C80.0074 42.0997 80.5607 41.8053 80.9953 41.3721C81.4298 40.939 81.7261 40.3866 81.8465 39.785C81.9669 39.1834 81.9061 38.5596 81.6718 37.9926C81.4375 37.4255 81.0401 36.9408 80.5301 36.5997C80.0201 36.2586 79.4204 36.0766 78.8068 36.0766C77.9864 36.0766 77.1994 36.4018 76.6183 36.981C76.0372 37.5602 75.7094 38.3461 75.7068 39.1666Z"
        fill="#4A306D" />
    <path
        d="M47.6965 80.5166C47.6946 81.1305 47.875 81.7313 48.2148 82.2426C48.5547 82.7539 49.0387 83.1528 49.6056 83.3887C50.1725 83.6245 50.7966 83.6868 51.3989 83.5675C52.0011 83.4482 52.5544 83.1527 52.9885 82.7186C53.4227 82.2844 53.7182 81.7311 53.8374 81.1289C53.9567 80.5266 53.8945 79.9025 53.6586 79.3356C53.4228 78.7688 53.0239 78.2847 52.5126 77.9448C52.0012 77.605 51.4005 77.4246 50.7865 77.4266C49.967 77.4266 49.1811 77.7521 48.6016 78.3316C48.0221 78.9111 47.6965 79.6971 47.6965 80.5166Z"
        fill="#4A306D" />
    <path
        d="M36.0366 78.7666C36.0347 79.3805 36.215 79.9813 36.5549 80.4926C36.8948 81.0039 37.3788 81.4028 37.9457 81.6387C38.5126 81.8745 39.1367 81.9368 39.7389 81.8175C40.3412 81.6982 40.8945 81.4027 41.3287 80.9686C41.7628 80.5344 42.0582 79.9811 42.1775 79.3789C42.2968 78.7766 42.2346 78.1525 41.9987 77.5856C41.7629 77.0188 41.364 76.5347 40.8526 76.1948C40.3413 75.855 39.7406 75.6746 39.1266 75.6766C38.3079 75.6792 37.5235 76.0056 36.9446 76.5845C36.3657 77.1634 36.0393 77.9479 36.0366 78.7666Z"
        fill="#4A306D" />
    <path
        d="M45.9365 68.8966C45.9365 69.5097 46.1183 70.109 46.459 70.6188C46.7996 71.1286 47.2838 71.526 47.8502 71.7606C48.4167 71.9952 49.04 72.0566 49.6413 71.937C50.2426 71.8174 50.795 71.5221 51.2285 71.0886C51.6621 70.655 51.9574 70.1027 52.077 69.5013C52.1966 68.9 52.1352 68.2767 51.9005 67.7103C51.6659 67.1438 51.2686 66.6596 50.7588 66.319C50.249 65.9784 49.6497 65.7966 49.0365 65.7966C48.2144 65.7966 47.4258 66.1232 46.8445 66.7045C46.2631 67.2859 45.9365 68.0744 45.9365 68.8966Z"
        fill="#4A306D" />
    <path
        d="M69.2468 72.3165C69.2468 72.9297 69.4287 73.529 69.7693 74.0388C70.1099 74.5486 70.5941 74.9459 71.1605 75.1806C71.727 75.4152 72.3503 75.4766 72.9516 75.357C73.5529 75.2374 74.1053 74.9421 74.5388 74.5086C74.9724 74.075 75.2677 73.5227 75.3873 72.9213C75.5069 72.32 75.4455 71.6967 75.2108 71.1302C74.9762 70.5638 74.5789 70.0796 74.0691 69.739C73.5593 69.3984 72.96 69.2166 72.3468 69.2166C71.5247 69.2166 70.7361 69.5431 70.1548 70.1245C69.5734 70.7059 69.2468 71.4944 69.2468 72.3165Z"
        fill="#4A306D" />
</svg>